<?xml version="1.0" encoding="UTF-8"?>
<svg id="EventEye_icon_white" data-name="EventEye icon white" xmlns="http://www.w3.org/2000/svg" viewBox="50 50 400 400">
  <defs>
    <style>
      .cls-2 {
        stroke-width: 0px;
        fill: #fff;
      }
    </style>
  </defs>
  <g id="eye">
    <path class="cls-2" d="m117.44,223.68c.92-.88,1.84-1.76,2.75-2.64,6.52-2.15,11.67-6.48,16.35-11.14,9.62-9.56,21.01-16.94,31.09-25.94,7.95-7.09,14.22-14.7,15.44-25.61,15.49-13.12,33.76-19.78,53.58-22.34,29.47-3.8,56.94,2.87,83.01,16.57,8.96,4.71,18.03,9.3,27.36,13.19,18.78,7.81,38.18,5.96,57.57,2.63,1.84-.32,3.7-.57,5.56-.64,3.71-.14,5.91,1.92,6.55,5.38.7,3.8-1.17,6.68-4.78,7.45-6.38,1.36-12.87,2.22-19.34,3.1-23.95,3.24-46.75-2.38-69.42-9.05-16.57-4.87-32.99-10.45-49.8-14.31-34.61-7.95-63.28,3.09-87.36,28.65-19.88,21.1-40.48,41.52-60.77,62.24-4.01.84-5.49.18-5.51-3.66-.02-5.98-.56-11.71-3.28-17.15-1.14-2.29.08-4.55.98-6.71Z"/>
    <path class="cls-2" d="m303.88,314.83c3.4-3.13,6.8-6.26,10.2-9.39,7.5-2.22,14.26-5.69,19.82-11.34,12.74-12.97,25.2-26.21,37.86-39.25,3.15-3.24,6.65-6.07,9.81-9.29,8.67-8.81,18.53-16.75,20.68-30.03,3.61-4,7.64-7.33,13.22-8.15,5.52-.81,9.99,1.35,12.58,6.07,2.28,4.16,1.99,9.2-1.6,12.98-8.26,8.69-16.89,17.03-25.26,25.62-21.85,22.43-43.47,45.1-65.56,67.3-7.16,7.2-15.47,13.25-23.25,19.83-2.64.31-3.25-1.63-3.15-3.46.26-4.68-1.84-9.02-1.71-13.65.04-1.57-.8-2.52-2.01-3.38-1.3-.92-2.35-2.05-1.65-3.87Z"/>
    <path class="cls-2" d="m261.82,355.96c-8.98.14-18.02.95-26.94.29-25.71-1.91-49.26-11.24-72.22-22.27-19.06-9.16-39.02-10.86-59.65-7.42-4.13.69-8.35.94-12.45,1.77-3.93.79-6.13-1.26-7.25-4.32-1.25-3.42.4-6.28,3.79-7.43,2.9-.98,6.05-1.26,9.09-1.83,26.84-5.1,52.77-.91,78.76,6.32,17.94,4.99,36.46,7.87,54.72,11.7.44.09.84.39,1.26.59-1.11,1.33-2.96,2.53-.05,4.04,4.31,2.23,7.66,5.73,10.96,9.17,4.39,4.58,9.7,6.97,15.88,7.72,1.5.18,3.14.11,4.1,1.67Z"/>
    <path class="cls-2" d="m261.82,355.96c-9.51.51-16.93-3.49-23.35-10.23-2.94-3.08-6.58-5.48-9.88-8.21-.88-.72-1.7-1.52-2.55-2.28,1.17-.59,2.32-1.22,3.51-1.75.4-.18.92-.1,1.38-.14.27-.05.54-.04.8.04,8.11.92,16.22.62,24.34.14,17.72-1.69,33.55-8.18,47.81-18.7,6.06,2.52,4.98,8.6,6.47,13.32.7,2.23.15,4.82.48,7.21.18,1.32,1.02,2.55,1.57,3.82-9.71,7.02-20.69,11.17-32.25,13.8-6.02,1.37-12.21,2.01-18.33,2.98Z"/>
    <path class="cls-2" d="m117.44,223.68c.99,3.85,2.25,7.65,2.9,11.55.64,3.87.92,7.83.9,11.75-.01,3,1.02,4.37,4,4.22-11.5,11.59-22.85,23.34-34.57,34.7-4.61,4.47-13.54,3.71-17.97-.69-4.14-4.12-4.57-12.05-.12-16.6,14.8-15.12,29.88-29.97,44.86-44.93Z"/>
    <path class="cls-2" d="m400.39,80.72c10.36-5.85,22.79-3.86,30.5,4.87,7.11,8.05,7.62,20.51,1.22,29.38-6.45,8.93-18.79,12.17-29.24,7.68-9.98-4.29-15.48-15.54-13.24-27.04,1.69.26,1.84,3.84,4.34,2.17,3.43-2.29,7.22-4.35,7.38-9.3.09-2.65-1.08-5.12-.97-7.76Z"/>
    <path class="cls-2" d="m402.27,215.53c.63,8.15-3.01,14.52-8.55,19.98-6.21,6.11-12.73,11.9-18.81,18.13-8.45,8.66-16.47,17.75-24.96,26.39-7.49,7.63-15.14,15.16-23.2,22.16-2.83,2.46-7.09,3.3-10.77,4.7-.39.15-1.25-.94-1.89-1.46,8.42-8.71,16.81-17.45,25.27-26.12,20.55-21.07,41.13-42.1,61.72-63.13.3-.31.79-.44,1.19-.65Z"/>
    <path class="cls-2" d="m232.81,296.78c15.59,3.54,30.79,2.83,45.12-4.84,4.17-2.23,7.83-5.41,11.72-8.16,2.43,3.86,4.33,7.97,5.84,12.26-15.01,12.86-32.61,17.42-51.88,15.26-7.13-.8-14.06-3.45-21.08-5.26-.51-.44-.86-1.23-.36-1.55,3.72-2.34,6.44-6.05,10.64-7.71Z"/>
    <path class="cls-2" d="m306.83,259.49c6.02-18.68,4.13-36.22-7.65-52.28-1.47-2-3.17-3.82-4.76-5.73-.27-2,1.07-2.99,2.62-3.17,4.78-.56,9.57-.77,13.33,3.13,14.51,20.23,17.15,41.86,7.66,64.92-4.71-.7-8.68-2.62-11.21-6.87Z"/>
    <path class="cls-2" d="m270.14,251.13c5.22-7.78,5.15-15.96,1.85-24.39-1.08-2.59.97-3.33,2.61-3.9,2.86-.99,5.85-2.34,8.77-.09.73.56,1.26,1.34,1.65,2.2,7.09,20.32-.96,39.17-20.39,47.72-3.84-.38-4.76-1.74-3.45-5.73,1.92-5.86,4.03-11.65,8.97-15.82Z"/>
    <path class="cls-2" d="m183.08,158.34c2.2,4.18.27,7.99-1.6,11.41-2.06,3.75-4.55,7.53-7.68,10.39-7.43,6.78-15.41,12.95-23.04,19.52-6.37,5.48-12.43,11.34-18.88,16.72-3.28,2.73-6.84,5.49-11.68,4.65,2.38-2.59,4.68-5.25,7.15-7.76,15.17-15.41,30.33-30.82,45.6-46.12,3.15-3.16,6.74-5.89,10.13-8.81Z"/>
    <path class="cls-2" d="m232.81,296.78c-3.43,3.09-6.86,6.17-10.29,9.26-17.8-7.25-30.86-19.42-38.51-37.18-.83-3.86,2.07-3.13,3.91-2.81,4.05.7,7.37,2.96,10.32,5.78,1.22,1.16,2,2.77,3.61,3.52,8.14,10.3,18.73,17.05,30.96,21.44Z"/>
    <path class="cls-2" d="m270.14,251.13c-2.28,4.86-4.75,9.63-6.75,14.6-.92,2.28-3.89,5.51,1.23,6.95-15.7,7.58-37.32.56-46.15-14.99.89-3.18,3.47-2.64,5.63-2.28,4.59.78,9.09,2.02,13.37,3.92,13.18,6.4,23.58,1.72,32.67-8.2Z"/>
    <path class="cls-2" d="m127.89,285.05c20.25,1.64,37.49,8.04,53.92,16.9,2.32,1.25,4.19,3.18,2.52,6.06-1.6,2.77-4.04,2.11-6.57,1.18-12.51-4.61-25.01-9.29-37.64-13.56-3.91-1.32-8.36-1.04-12.28-2.34-1.55-.51-3.24-3.33-3.21-5.06.03-1.34,2.64-2.63,3.26-3.18Z"/>
    <path class="cls-2" d="m306.83,259.49c3.74,2.29,7.47,4.58,11.21,6.87-4.87,11.9-12.54,21.69-22.56,29.68-3.79-3.21-6-7.17-5.83-12.26,6.89-7.27,12.64-15.36,17.18-24.29Z"/>
    <path class="cls-2" d="m343.11,195.85c8.44,1.99,16.87,3.98,25.31,5.98,1.05.25,2.12.5,3.04.94,1.8.85,2.7,2.9,2.38,4.78-.26,1.54-1.71,3.2-3.95,3.19-5.86-.03-11.72-1.36-17.36-2.91-7.57-2.09-14.91-4.96-22.36-7.5-1.41-2.47.55-3.36,2.16-4.05,3.49-1.5,7.12-1.72,10.77-.42Z"/>
    <path class="cls-2" d="m201.85,275.34c-3.33-2.09-6.51-4.52-10.05-6.16-2.31-1.07-5.07-4.31-7.79-.33-2.14-7.08-4.31-14.15-6.34-21.26-.21-.73.15-1.99.71-2.51,2.44-2.29,10.36-.15,11.15,3.25,2.29,9.87,6.84,18.64,12.33,27Z"/>
    <path class="cls-2" d="m241.18,214.17c.01,5.36-4.12,9.78-9.15,9.79-5.86,0-10.3-4.17-10.35-9.75-.05-5.45,4.64-9.9,10.34-9.8,5.33.09,9.14,4.16,9.16,9.76Z"/>
    <path class="cls-2" d="m310.39,201.45c-3.88-.61-7.74-1.43-11.65-1.71-1.39-.1-2.87,1.13-4.31,1.75-5.15-3.72-10.33-7.41-15.44-11.19-.77-.57-1.25-1.53-1.87-2.32.73-.52,1.4-1.16,2.2-1.54,8.26-3.94,15.37-1.7,21.51,4.39,3.38,3.35,6.38,7.07,9.56,10.63Z"/>
    <path class="cls-2" d="m285.01,224.95c-4.22-2.77-9.65-2.03-13.03,1.78-4.01-3.75-8.05-7.46-11.98-11.3-.7-.68-1.49-2.13-1.22-2.82,1.77-4.43,9.65-6.5,13.52-3.67,5.69,4.17,10.56,9.01,12.71,16Z"/>
    <path class="cls-2" d="m237.47,259.33c-4.31-.7-8.61-1.53-12.94-2.02-1.98-.22-4.04.24-6.06.38-1.74-4.88-3.54-9.74-5.15-14.66-.16-.5.67-1.72,1.32-2.04,3.02-1.45,9.82.86,11.83,3.64,3.59,4.96,7.33,9.81,11,14.7Z"/>
    <path class="cls-2" d="m400.39,80.72c3.8,4.45,3.61,11.12-.48,14.75-1.14,1.02-2.37,1.98-3.69,2.75-1.64.96-3.41,1.69-5.13,2.52-.49-1.71-.98-3.42-1.47-5.13.48-7.21,4.45-11.9,10.76-14.89Z"/>
    <path class="cls-2" d="m343.11,195.85c-3.44.63-6.91,1.1-10.29,1.97-1.03.27-1.77,1.64-2.64,2.51-3.59-1.76-7.3-3.31-10.7-5.38-1.15-.7-2.21-3.26-1.99-4.03.78-2.71,2.99-2.57,4.38-2.37,3.77.54,7.49,1.66,11.1,2.92,3.46,1.21,6.76,2.9,10.12,4.38Z"/>
    <path class="cls-2" d="m149.9,266.27c2.63,1.44,4.91,2.21,6.47,3.72.99.96.92,3.02,1.32,4.59-1.33.07-2.66.22-3.99.17-1.39-.05-2.83-.08-4.14-.49-2.04-.64-5.51-.45-4.61-3.78.44-1.65,3.08-2.71,4.94-4.21Z"/>
    <path class="cls-2" d="m350.1,221.04c1.3-1.35,3.5-1.25,4.68.2.83,1.02,1.42,1.86,1.4,2.69-.04,1.24-2.78,3.64-3.55,3.36-.94-.34-1.75-1.03-2.53-1.81-1.21-1.21-1.24-3.16-.06-4.39l.05-.05Z"/>
    <path class="cls-2" d="m256.07,333.53c-8.11-.05-16.22-.09-24.34-.14,8.11.05,16.22.09,24.34.14Z"/>
  </g>
</svg>